<svg width="32" height="32" viewBox="0 0 32 32" fill="none" xmlns="http://www.w3.org/2000/svg">
<path d="M23 2L24.593 5L28 5.414L25.5 7.667L26 11L23 9.125L20 11L20.5 7.667L18 5.414L21.5 5L23 2Z" fill="white"/>
<path d="M22.717 13.2491L20.779 12.7511C20.4316 14.0893 19.6954 15.2945 18.6633 16.2145C17.6312 17.1346 16.3497 17.728 14.9804 17.92C13.6112 18.112 12.2159 17.8938 10.9706 17.2931C9.72532 16.6924 8.68603 15.7361 7.98401 14.545C7.282 13.3538 6.94876 11.9814 7.0264 10.601C7.10404 9.22057 7.58907 7.89414 8.42022 6.78927C9.25137 5.68439 10.3913 4.85064 11.6961 4.39336C13.0009 3.93607 14.412 3.87576 15.751 4.22005L16.25 2.28305C14.298 1.77531 12.2319 1.93873 10.384 2.74706C8.53609 3.5554 7.01368 4.96166 6.06156 6.73976C5.10944 8.51787 4.78292 10.5645 5.1345 12.5506C5.48608 14.5367 6.49533 16.3469 7.99999 17.6901V30.0001L14 26.0001L20 30.0001V17.7081C21.3281 16.5243 22.2739 14.9721 22.717 13.2491ZM18 26.2631L14 23.5961L9.99999 26.2631V19.0501C11.241 19.6735 12.6104 19.9987 13.9993 19.9997C15.3881 20.0008 16.758 19.6776 18 19.0561V26.2631Z" fill="white"/>
</svg>
